 <svg aria-hidden="true" style="position: absolute; width: 0; height: 0; overflow: hidden;" version="1.1" xmlns="http://www.w3.org/2000/svg" xmlns:xlink="http://www.w3.org/1999/xlink">
<defs>
<symbol id="icon-shopping_cart" viewBox="0 0 32 32">
<path fill="#d4bfc4" style="fill: var(--color1, #7a3145)" d="M9.333 24c-1.467 0-2.653 1.2-2.653 2.667s1.187 2.667 2.653 2.667 2.667-1.2 2.667-2.667-1.2-2.667-2.667-2.667zM1.333 2.667v2.667h2.667l4.8 10.12-1.8 3.267c-0.213 0.373-0.333 0.813-0.333 1.28 0 1.467 1.2 2.667 2.667 2.667h16v-2.667h-15.44c-0.187 0-0.333-0.147-0.333-0.333l0.040-0.16 1.2-2.173h9.933c1 0 1.88-0.547 2.333-1.373l4.773-8.653c0.107-0.187 0.16-0.413 0.16-0.64 0-0.733-0.6-1.333-1.333-1.333h-19.72l-1.253-2.667h-4.36zM22.667 24c-1.467 0-2.653 1.2-2.653 2.667s1.187 2.667 2.653 2.667 2.667-1.2 2.667-2.667-1.2-2.667-2.667-2.667z"></path>
</symbol>
  
 

<symbol id="icon-logo-1" viewBox="0 0 346 32">
<path fill="#fbfbfb" style="fill: var(--color1, #fbfbfb)" d="M29.082 0.314h-4.010c-1.237 0-2.24 0.983-2.24 2.195v3.929c0 1.212 1.003 2.195 2.24 2.195h4.010c1.237 0 2.24-0.983 2.24-2.195v-3.929c0-1.212-1.003-2.195-2.24-2.195z"></path>
<path fill="#fbfbfb" style="fill: var(--color1, #fbfbfb)" d="M6.73 23.040h-4.318c-1.332 0-2.412 0.983-2.412 2.195v3.929c0 1.212 1.080 2.195 2.412 2.195h4.318c1.332 0 2.412-0.983 2.412-2.195v-3.929c0-1.212-1.080-2.195-2.412-2.195z"></path>
<path fill="#fbfbfb" style="fill: var(--color1, #fbfbfb)" d="M6.25 11.582h-4.009c-1.237 0-2.24 0.983-2.24 2.195v3.929c0 1.212 1.003 2.195 2.24 2.195h4.009c1.237 0 2.24-0.983 2.24-2.195v-3.929c0-1.212-1.003-2.195-2.24-2.195z"></path>
<path fill="#fbfbfb" style="fill: var(--color1, #fbfbfb)" d="M17.766 22.978h-4.009c-1.237 0-2.24 0.983-2.24 2.195l-0 3.929c0 1.212 1.003 2.196 2.241 2.196h4.009c1.237 0 2.24-0.983 2.24-2.196v-3.929c0-1.212-1.003-2.195-2.24-2.195z"></path>
<path fill="#fbfbfb" style="fill: var(--color1, #fbfbfb)" d="M6.25 0.086h-4.009c-1.237 0-2.24 0.983-2.24 2.195v3.929c0 1.212 1.003 2.195 2.24 2.195h4.009c1.237 0 2.24-0.983 2.24-2.195v-3.929c0-1.212-1.003-2.195-2.24-2.195z"></path>
<path fill="#fbfbfb" style="fill: var(--color1, #fbfbfb)" d="M18.076 11.697h-4.009c-1.237 0-2.24 0.983-2.24 2.195v3.929c0 1.212 1.003 2.195 2.24 2.195h4.009c1.237 0 2.24-0.983 2.24-2.195v-3.929c0-1.212-1.003-2.195-2.24-2.195z"></path>
<path fill="#fbfbfb" style="fill: var(--color1, #fbfbfb)" d="M29.333 22.978h-4.009c-1.237 0-2.24 0.983-2.24 2.195v3.929c0 1.212 1.003 2.196 2.24 2.196h4.009c1.237 0 2.24-0.983 2.24-2.196v-3.929c0-1.212-1.003-2.195-2.24-2.195z"></path>
<path fill="#fbfbfb" style="fill: var(--color1, #fbfbfb)" d="M17.591 0.224h-4.009c-1.237 0-2.24 0.983-2.24 2.195v3.929c0 1.212 1.003 2.195 2.24 2.195h4.009c1.237 0 2.24-0.984 2.24-2.196v-3.929c0-1.212-1.003-2.195-2.24-2.195z"></path>
<path fill="#fbfbfb" style="fill: var(--color1, #fbfbfb)" d="M29.044 11.926h-4.009c-1.237 0-2.24 0.983-2.24 2.195v3.929c0 1.212 1.003 2.195 2.24 2.195h4.009c1.237 0 2.24-0.983 2.24-2.195v-3.929c0-1.212-1.003-2.195-2.24-2.195z"></path>
<path fill="#fbfbfb" style="fill: var(--color1, #fbfbfb)" d="M59.112 30.223c-7.748 0-12.89-5.227-12.89-13.369 0-7.965 5.068-13.298 12.706-13.298 6.427 0 10.943 3.662 11.604 9.173h-5.325c-0.514-3.164-2.975-4.942-6.28-4.942-4.627 0-7.381 3.627-7.381 9.067 0 5.973 3.085 9.138 7.565 9.138 3.893 0 6.39-2.133 6.647-5.333v-0.356h-7.161v-3.982h12.118v3.271c-0.22 6.364-4.847 10.631-11.604 10.631z"></path>
<path fill="#fbfbfb" style="fill: var(--color1, #fbfbfb)" d="M73.926 29.867v-25.956h12.89c6.573 0 9.181 3.093 9.181 7.573 0 4.018-2.938 5.938-6.353 6.4v0.107c2.203 0.533 3.195 1.707 4.113 4.018 1.175 2.916 1.359 6.4 2.864 7.644v0.213h-5.876c-1.248-1.209-1.542-5.013-2.203-7.324-0.661-2.382-2.093-2.667-4.774-2.667h-4.7v9.991h-5.141zM79.067 15.752h7.198c3.011 0 4.407-1.707 4.407-3.911 0-2.418-1.726-3.804-4.407-3.804h-7.198v7.716z"></path>
<path fill="#fbfbfb" style="fill: var(--color1, #fbfbfb)" d="M99.411 29.867v-25.956h18.324v4.124h-13.183v6.187h11.898v4.124h-11.898v7.289h13.367v4.231h-18.508z"></path>
<path fill="#fbfbfb" style="fill: var(--color1, #fbfbfb)" d="M121.489 29.867v-25.956h18.325v4.124h-13.183v6.187h11.898v4.124h-11.898v7.289h13.367v4.231h-18.508z"></path>
<path fill="#fbfbfb" style="fill: var(--color1, #fbfbfb)" d="M143.567 29.867v-25.956h6.243l8.887 14.329c2.717 4.338 3.049 5.76 3.049 5.76h0.109l-0.072-20.089h5.141v25.956h-6.28l-9.217-14.756c-2.093-3.342-2.644-5.369-2.644-5.369h-0.073v20.124h-5.141z"></path>
<path fill="#fbfbfb" style="fill: var(--color1, #fbfbfb)" d="M170.79 29.867v-5.262h5.362v5.262h-5.362z"></path>
<path fill="#fbfbfb" style="fill: var(--color1, #fbfbfb)" d="M180.013 29.867v-25.956h5.141v10.382h12.302v-10.382h5.141v25.956h-5.141v-11.449h-12.302v11.449h-5.141z"></path>
<path fill="#fbfbfb" style="fill: var(--color1, #fbfbfb)" d="M204.795 29.867l10.282-25.956h5.582l10.429 25.956h-5.509l-2.166-5.973h-11.126l-2.166 5.973h-5.325zM213.755 19.77h8.189l-2.387-6.4c-1.653-4.729-1.69-5.582-1.69-5.582h-0.072c0 0 0 0.853-1.653 5.582l-2.387 6.4z"></path>
<path fill="#fbfbfb" style="fill: var(--color1, #fbfbfb)" d="M233.278 29.867v-25.956h12.89c6.573 0 9.181 3.093 9.181 7.573 0 4.018-2.938 5.938-6.354 6.4v0.107c2.203 0.533 3.195 1.707 4.114 4.018 1.174 2.916 1.358 6.4 2.864 7.644v0.213h-5.875c-1.25-1.209-1.542-5.013-2.205-7.324-0.661-2.382-2.093-2.667-4.773-2.667h-4.701v9.991h-5.141zM238.419 15.752h7.197c3.011 0 4.408-1.707 4.408-3.911 0-2.418-1.726-3.804-4.408-3.804h-7.197v7.716z"></path>
<path fill="#fbfbfb" style="fill: var(--color1, #fbfbfb)" d="M264.213 29.867l-9.842-25.956h5.509c0 0 5.325 14.542 5.875 16.32 0.882 2.844 1.286 4.302 1.286 4.302h0.074c-0.037 0 0.366-1.458 1.285-4.302 0.587-1.778 5.691-16.32 5.691-16.32h5.325l-9.474 25.956h-5.73z"></path>
<path fill="#fbfbfb" style="fill: var(--color1, #fbfbfb)" d="M281.522 29.867v-25.956h18.325v4.124h-13.182v6.187h11.898v4.124h-11.898v7.289h13.366v4.231h-18.509z"></path>
<path fill="#fbfbfb" style="fill: var(--color1, #fbfbfb)" d="M312.794 30.223c-6.83 0-10.942-3.591-10.942-8.924h5.875c-0.074 3.022 1.982 4.693 5.067 4.693 3.269 0 4.811-1.244 4.811-3.093s-1.322-2.631-6.022-3.876c-4.298-1.138-8.997-2.489-8.997-7.822 0-4.231 3.819-7.644 9.842-7.644 6.205 0 10.171 3.378 10.171 8.142h-5.691c-0.037-2.524-1.8-3.911-4.48-3.911-2.608 0-4.334 1.28-4.334 2.987 0 2.027 1.432 2.667 5.179 3.698 5.544 1.493 10.024 2.098 10.024 7.893 0 4.658-4.37 7.858-10.502 7.858z"></path>
<path fill="#fbfbfb" style="fill: var(--color1, #fbfbfb)" d="M331.669 29.867v-21.724h-8.117v-4.231h21.336v4.231h-8.078v21.724h-5.141z"></path>
</symbol>
</defs>
</svg>